
        <svg xmlns="http://www.w3.org/2000/svg" xmlns:xlink="http://www.w3.org/1999/xlink" version="1.1" width="3162.1621621621625" 
        height="972.9634023304093" viewBox="0 0 3162.1621621621625 972.9634023304093">
			<rect fill="#ffffff" width="3162.1621621621625" height="972.9634023304093"/>
			<g transform="scale(8.108108108108109) translate(10, 10)">
				<defs id="SvgjsDefs1048"></defs><g id="SvgjsG1049" featureKey="symbolFeature-0" transform="matrix(1.181028007606328,0,0,1.181028007606328,-9.051399254000316,-9.051398127684237)" fill="#8d3100"><path xmlns="http://www.w3.org/2000/svg" d="M78.454,92.335H21.547c-7.655,0-13.883-6.228-13.883-13.882V21.546c0-7.654,6.228-13.882,13.883-13.882h56.907  c7.654,0,13.882,6.228,13.882,13.882v56.908C92.336,86.108,86.108,92.335,78.454,92.335z M21.547,12.664  c-4.898,0-8.883,3.984-8.883,8.882v56.908c0,4.897,3.985,8.882,8.883,8.882h56.907c4.897,0,8.882-3.984,8.882-8.882V21.546  c0-4.897-3.984-8.882-8.882-8.882H21.547z M25.031,40.225c-2.519,0-4.56,2.041-4.56,4.559c0,2.519,2.041,4.56,4.56,4.56  c2.518,0,4.559-2.041,4.559-4.56C29.59,42.266,27.549,40.225,25.031,40.225z M74.969,40.225c-2.519,0-4.56,2.041-4.56,4.559  c0,2.519,2.041,4.56,4.56,4.56c2.518,0,4.559-2.041,4.559-4.56C79.528,42.266,77.487,40.225,74.969,40.225z M68.999,58H31.001  c-4.259,0-7.47,1.964-7.47,4.568v10.864c0,2.604,3.211,4.568,7.47,4.568h37.997c4.259,0,7.47-1.964,7.47-4.568V62.568  C76.469,59.964,73.257,58,68.999,58z M73.469,62.568V67H66v-6h2.999C71.932,61,73.469,62.165,73.469,62.568z M44.125,67H36v-6h8.125  V67z M46.125,61h7.75v6h-7.75V61z M44.125,69v6H36v-6H44.125z M46.125,69h7.75v6h-7.75V69z M55.875,69H64v6h-8.125V69z M55.875,67  v-6H64v6H55.875z M31.001,61H34v6h-7.469v-4.432C26.531,62.165,28.068,61,31.001,61z M26.531,73.432V69H34v6h-2.999  C28.068,75,26.531,73.835,26.531,73.432z M68.999,75H66v-6h7.469v4.432C73.469,73.835,71.932,75,68.999,75z"></path></g><g id="SvgjsG1050" featureKey="nameFeature-0" transform="matrix(0.9787447980287469,0,0,0.9787447980287469,117.20441322042045,11.814611852178949)" fill="#0f4392"><path d="M2.8571 40 l0 -24.286 l4.2857 -4.2857 l16.571 0 l4.2857 4.2857 l0 24.286 l-7.4286 0 l0 -8 l-10.286 0 l0 8 l-7.4286 0 z M10.286 25.714 l10.286 0 l0 -8 l-10.286 0 l0 8 z M34.57138571428572 35.7143 l0 -24.286 l7.4286 0 l0 22.286 l15.429 0 l0 6.2857 l-18.571 0 z M62.57138571428572 35.7143 l0 -24.286 l7.4286 0 l0 22.286 l15.429 0 l0 6.2857 l-18.571 0 z M90.57138571428573 40 l0 -24.286 l4.2857 -4.2857 l16.571 0 l4.2857 4.2857 l0 24.286 l-7.4286 0 l0 -8 l-10.286 0 l0 8 l-7.4286 0 z M98.00028571428572 25.714 l10.286 0 l0 -8 l-10.286 0 l0 8 z M139.99957142857144 11.428999999999998 l7.4286 0 l0 28.571 l-6.5714 0 l-11.143 -16 l0 16 l-7.4286 0 l0 -28.571 l6.5714 0 l11.143 15.886 l0 -15.886 z M169.1428142857143 40 l0 -24.286 l4.2857 -4.2857 l16.571 0 l4.2857 4.2857 l0 24.286 l-7.4286 0 l0 -8 l-10.286 0 l0 8 l-7.4286 0 z M176.5717142857143 25.714 l10.286 0 l0 -8 l-10.286 0 l0 8 z M218.85700000000003 17.714 l-10.571 0 l0 4.8571 l14 0 l4.2857 4.2857 l0 8.8571 l-4.2857 4.2857 l-17.143 0 l-4.2857 -4.2857 l0 -4.2857 l5.4286 0 l2.2857 2.2857 l10.571 0 l0 -4.8571 l-14 0 l-4.2857 -4.2857 l0 -8.8571 l4.2857 -4.2857 l17.143 0 l4.2857 4.2857 l0 4.2857 l-5.4286 0 z M233.1428142857143 40 l0 -28.571 l20.857 0 l4.2857 4.2857 l0 12 l-4.2857 4.2857 l-13.429 0 l0 8 l-7.4286 0 z M240.5717142857143 25.714 l10.286 0 l0 -8 l-10.286 0 l0 8 z"></path></g><g id="SvgjsG1051" featureKey="sloganFeature-0" transform="matrix(0.4272199108885081,0,0,0.4272199108885081,119.38967360417713,68.55895109676209)" fill="#0f4392"><path d="M1.4286 20 l0 -14.286 l10.429 0 l2.1429 2.1429 l0 6 l-2.1429 2.1429 l-6.7143 0 l0 4 l-3.7143 0 z M5.1429 12.857099999999999 l5.1429 0 l0 -4 l-5.1429 0 l0 4 z M17.714285714285715 20 l0 -2.8571 l1.1429 0 l0 -8.5714 l-1.1429 0 l0 -2.8571 l6 0 l0 2.8571 l-1.1429 0 l0 8.5714 l1.1429 0 l0 2.8571 l-6 0 z M35.7143 8.857 l-4.5714 0 l0 8 l4.5714 0 l1.1429 -1.1429 l2.7143 0 l0 2.1429 l-2.1429 2.1429 l-7.8571 0 l-2.1429 -2.1429 l0 -10 l2.1429 -2.1429 l7.8571 0 l2.1429 2.1429 l0 2.1429 l-2.7143 0 z M56.571714285714286 5.714 l0 1.7143 l-3.3429 5.4286 l3.3429 5.4286 l0 1.7143 l-3.4286 0 l-3.2571 -5.5714 l-2.4571 0 l0 5.5714 l-3.7143 0 l0 -14.286 l3.7143 0 l0 5.5714 l2.4571 0 l3.2571 -5.5714 l3.4286 0 z M68.71431428571428 17.8571 l0 -12.143 l3.7143 0 l0 11.143 l5.1429 0 l0 -11.143 l3.7143 0 l0 12.143 l-2.1429 2.1429 l-8.2857 0 z M85.4286 20 l0 -14.286 l10.429 0 l2.1429 2.1429 l0 6 l-2.1429 2.1429 l-6.7143 0 l0 4 l-3.7143 0 z M89.1429 12.857099999999999 l5.1429 0 l0 -4 l-5.1429 0 l0 4 z M123.28585714285715 5.714 l0 1.7143 l-4.8571 7.8571 l0 4.7143 l-3.7143 0 l0 -4.7429 l-4.8571 -7.8286 l0 -1.7143 l3.2857 0 l3.4286 5.8286 l3.4286 -5.8286 l3.2857 0 z M137.1427142857143 5.714 l2.1429 2.1429 l0 10 l-2.1429 2.1429 l-8.2857 0 l-2.1429 -2.1429 l0 -10 l2.1429 -2.1429 l8.2857 0 z M135.57171428571428 16.8571 l0 -8 l-5.1429 0 l0 8 l5.1429 0 z M143.4286 17.8571 l0 -12.143 l3.7143 0 l0 11.143 l5.1429 0 l0 -11.143 l3.7143 0 l0 12.143 l-2.1429 2.1429 l-8.2857 0 z M173.00028571428572 7.856999999999999 l0 5 l-2.1429 2.1429 l2.1429 3.2857 l0 1.7143 l-3.4286 0 l-2.9714 -4.8571 l-2.7429 0 l0 4.8571 l-3.7143 0 l0 -14.286 l10.714 0 z M169.28528571428572 12 l0 -3.1429 l-5.4286 0 l0 3.1429 l5.4286 0 z M184.57142714285715 8.857 l0 -3.1429 l12.143 0 l0 3.1429 l-4.2286 0 l0 11.143 l-3.7143 0 l0 -11.143 l-4.2 0 z M212.71457142857142 7.856999999999999 l0 5 l-2.1429 2.1429 l2.1429 3.2857 l0 1.7143 l-3.4286 0 l-2.9714 -4.8571 l-2.7429 0 l0 4.8571 l-3.7143 0 l0 -14.286 l10.714 0 z M208.99957142857141 12 l0 -3.1429 l-5.4286 0 l0 3.1429 l5.4286 0 z M216.8571714285714 17.8571 l0 -12.143 l3.7143 0 l0 11.143 l5.1429 0 l0 -11.143 l3.7143 0 l0 12.143 l-2.1429 2.1429 l-8.2857 0 z M244.14285714285714 5.714 l3.7143 0 l0 14.286 l-3.7143 0 l0 -8 l-2.5143 4.8571 l-1.8571 0 l-2.4857 -4.8571 l0 8 l-3.7143 0 l0 -14.286 l3.7143 0 l3.4286 6.4857 z M252.00002857142854 20 l0 -14.286 l10.429 0 l2.1429 2.1429 l0 6 l-2.1429 2.1429 l-6.7143 0 l0 4 l-3.7143 0 z M255.71432857142855 12.857099999999999 l5.1429 0 l0 -4 l-5.1429 0 l0 4 z M280.8567142857143 8.857 l-8.4286 0 l0 2.4286 l7.2857 0 l0 3.1429 l-7.2857 0 l0 2.4286 l8.4286 0 l0 3.1429 l-10 0 l-2.1429 -2.1429 l0 -12.143 l12.143 0 l0 3.1429 z M283.99999857142853 8.857 l0 -3.1429 l12.143 0 l0 3.1429 l-4.2286 0 l0 11.143 l-3.7143 0 l0 -11.143 l-4.2 0 z M298.1428528571428 16.8571 l3.7143 0 l0 3.6286 l-1.0571 1.0857 l-1.4286 0 l0 -0.71429 l0.57143 -0.57143 l0 -0.28571 l-1.8 0 l0 -3.1429 z M313.28574285714285 20 l0 -12.143 l2.1429 -2.1429 l8.2857 0 l2.1429 2.1429 l0 12.143 l-3.7143 0 l0 -4 l-5.1429 0 l0 4 l-3.7143 0 z M317.00004285714283 12.857099999999999 l5.1429 0 l0 -4 l-5.1429 0 l0 4 z M338.85742857142856 5.714 l3.7143 0 l0 14.286 l-3.2857 0 l-5.5714 -8 l0 8 l-3.7143 0 l0 -14.286 l3.2857 0 l5.5714 7.9429 l0 -7.9429 z M357.1427142857143 5.714 l2.1429 2.1429 l0 10 l-2.1429 2.1429 l-10.429 0 l0 -14.286 l10.429 0 z M355.5717142857143 16.8571 l0 -8 l-5.1429 0 l0 8 l5.1429 0 z M384.71457142857145 7.856999999999999 l0 3.4857 l-1.5143 1.5143 l1.5143 1.5143 l0 3.4857 l-2.1429 2.1429 l-10.714 0 l0 -14.286 l10.714 0 z M380.99957142857147 11.2857 l0 -2.4286 l-5.4286 0 l0 2.4286 l5.4286 0 z M380.99957142857147 16.8571 l0 -2.4286 l-5.4286 0 l0 2.4286 l5.4286 0 z M388.85717142857146 17.8571 l0 -12.143 l3.7143 0 l0 11.143 l7.7143 0 l0 3.1429 l-9.2857 0 z M414.1427142857143 5.714 l2.1429 2.1429 l0 10 l-2.1429 2.1429 l-8.2857 0 l-2.1429 -2.1429 l0 -10 l2.1429 -2.1429 l8.2857 0 z M412.5717142857143 16.8571 l0 -8 l-5.1429 0 l0 8 l5.1429 0 z M433.85699999999997 5.714 l3.4286 0 l0 1.7143 l-3.4857 12.571 l-3.4286 0 l-1.8571 -6.7429 l-1.8571 6.7429 l-3.4286 0 l-3.5143 -12.571 l0 -1.7143 l3.4286 0 l2.0857 8.4571 l2.0571 -8.4571 l2.4286 0 l2.0857 8.4571 z M448.7142857142857 20 l0 -2.8571 l1.1429 0 l0 -8.5714 l-1.1429 0 l0 -2.8571 l6 0 l0 2.8571 l-1.1429 0 l0 8.5714 l1.1429 0 l0 2.8571 l-6 0 z M457.42857 8.857 l0 -3.1429 l12.143 0 l0 3.1429 l-4.2286 0 l0 11.143 l-3.7143 0 l0 -11.143 l-4.2 0 z"></path></g>
			</g>
		</svg>
	